<svg width="40" height="40" viewBox="0 0 40 40" fill="none" xmlns="http://www.w3.org/2000/svg">
<path d="M38 18.0029C37.4696 18.0029 36.9609 18.2136 36.5858 18.5887C36.2107 18.9638 36 19.4725 36 20.0029C36.0238 23.749 34.7406 27.3861 32.3713 30.2878C30.002 33.1895 26.6951 35.1742 23.0199 35.9001C19.3448 36.626 15.5316 36.0475 12.237 34.2644C8.94246 32.4814 6.37281 29.6052 4.97065 26.1314C3.56849 22.6576 3.42159 18.8035 4.55524 15.2331C5.6889 11.6626 8.03215 8.59919 11.1814 6.57048C14.3307 4.54177 18.0888 3.67475 21.8085 4.11875C25.5282 4.56274 28.9767 6.28996 31.56 9.00292H26.76C26.2296 9.00292 25.7209 9.21363 25.3458 9.5887C24.9707 9.96378 24.76 10.4725 24.76 11.0029C24.76 11.5333 24.9707 12.0421 25.3458 12.4171C25.7209 12.7922 26.2296 13.0029 26.76 13.0029H35.82C36.3504 13.0029 36.8591 12.7922 37.2342 12.4171C37.6093 12.0421 37.82 11.5333 37.82 11.0029V2.00293C37.82 1.47249 37.6093 0.963787 37.2342 0.588715C36.8591 0.213642 36.3504 0.00292909 35.82 0.00292909C35.2896 0.00292909 34.7809 0.213642 34.4058 0.588715C34.0307 0.963787 33.82 1.47249 33.82 2.00293V5.54292C30.4893 2.35904 26.1615 0.422833 21.568 0.0615871C16.9746 -0.299659 12.3973 0.936217 8.60984 3.56031C4.82243 6.18439 2.05722 10.0357 0.781663 14.4633C-0.493898 18.8909 -0.201574 23.623 1.60922 27.86C3.42002 32.0969 6.63821 35.5786 10.7198 37.7166C14.8014 39.8546 19.496 40.5177 24.0101 39.5938C28.5242 38.67 32.5808 36.2158 35.4943 32.6462C38.4077 29.0766 39.9993 24.6105 40 20.0029C40 19.4725 39.7893 18.9638 39.4142 18.5887C39.0391 18.2136 38.5304 18.0029 38 18.0029Z" fill="#4D91D5"/>
</svg>
