<svg width="38" height="40" viewBox="0 0 38 40" fill="none" xmlns="http://www.w3.org/2000/svg">
<path d="M11.4 30.1905C11.4 32.4571 9.709 34.2857 7.6 34.2857C5.491 34.2857 3.8 32.4571 3.8 30.1905C3.8 27.4667 7.6 22.8571 7.6 22.8571C7.6 22.8571 11.4 27.4667 11.4 30.1905ZM27.474 19.0476V16.3048L31.274 14.1524L35.701 15.3333L36.689 11.6571L33.326 10.7619L34.2 7.39048L30.533 6.4L29.355 10.8381L25.555 12.9905L20.9 10.2476V5.94286L24.149 2.68571L21.451 0L19 2.45714L16.549 0L13.851 2.68571L17.1 5.94286V10.2476L12.35 12.9905L8.55 10.8381L7.448 6.4L3.8 7.39048L4.693 10.7619L1.33 11.6571L2.318 15.3333L6.745 14.1524L10.545 16.3048V19.0476H0V20.9524H38V19.0476H27.474ZM14.25 19.0476V16.3048L19 13.5429L23.75 16.3048V19.0476H14.25ZM34.2 30.1905C34.2 32.4571 32.509 34.2857 30.4 34.2857C28.291 34.2857 26.6 32.4571 26.6 30.1905C26.6 27.4667 30.4 22.8571 30.4 22.8571C30.4 22.8571 34.2 27.4667 34.2 30.1905ZM22.8 35.9048C22.8 38.1714 21.109 40 19 40C16.891 40 15.2 38.1714 15.2 35.9048C15.2 33.181 19 28.5714 19 28.5714C19 28.5714 22.8 33.181 22.8 35.9048Z" fill="#4D91D5"/>
</svg>
