<svg width="42" height="42" viewBox="0 0 42 42" fill="none" xmlns="http://www.w3.org/2000/svg">
<path d="M21 41C32.046 41 41 32.046 41 21C41 9.954 32.046 1 21 1C9.954 1 1 9.954 1 21C1 32.046 9.954 41 21 41Z" stroke="#4D91D5" stroke-width="2" stroke-linejoin="round"/>
<path d="M21 41C28.732 41 35 34.732 35 27C35 19.268 28.732 13 21 13C13.268 13 7 19.268 7 27C7 34.732 13.268 41 21 41Z" stroke="#4D91D5" stroke-width="2" stroke-linejoin="round"/>
<path d="M21 41C23.1217 41 25.1566 40.1571 26.6569 38.6569C28.1571 37.1566 29 35.1217 29 33C29 30.8783 28.1571 28.8434 26.6569 27.3431C25.1566 25.8429 23.1217 25 21 25C18.8783 25 16.8434 25.8429 15.3431 27.3431C13.8429 28.8434 13 30.8783 13 33C13 35.1217 13.8429 37.1566 15.3431 38.6569C16.8434 40.1571 18.8783 41 21 41Z" stroke="#4D91D5" stroke-width="2" stroke-linejoin="round"/>
</svg>
