<svg width="40" height="33" viewBox="0 0 40 33" fill="none" xmlns="http://www.w3.org/2000/svg">
<path d="M32.5 0C32.7543 0 33.0025 0.0787096 33.2115 0.225627C33.4206 0.372545 33.5805 0.580683 33.67 0.822271C34.77 3.80174 36.86 5.07575 38.75 5.07575C39.0815 5.07575 39.3995 5.20944 39.6339 5.44742C39.8683 5.68539 40 6.00815 40 6.34469C40 6.68123 39.8683 7.00399 39.6339 7.24196C39.3995 7.47994 39.0815 7.61363 38.75 7.61363C36.345 7.61363 34.06 6.3523 32.5 4.02761C30.94 6.3523 28.655 7.61363 26.25 7.61363C23.845 7.61363 21.56 6.3523 20 4.03015C18.44 6.3523 16.155 7.61363 13.75 7.61363C11.3475 7.61363 9.06 6.3523 7.5 4.03015C5.94 6.35738 3.655 7.62124 1.25 7.62124C0.918479 7.62124 0.600537 7.48755 0.366117 7.24958C0.131696 7.01161 0 6.68885 0 6.3523C0 6.01576 0.131696 5.693 0.366117 5.45503C0.600537 5.21706 0.918479 5.08336 1.25 5.08336C3.14 5.08336 5.23 3.80681 6.33 0.824809C6.4195 0.58322 6.57944 0.375082 6.78849 0.228165C6.99753 0.0812473 7.24574 0.00253769 7.5 0.00253769C7.75426 0.00253769 8.00247 0.0812473 8.21151 0.228165C8.42056 0.375082 8.5805 0.58322 8.67 0.824809C9.77 3.80174 11.86 5.07575 13.75 5.07575C15.64 5.07575 17.73 3.80174 18.83 0.824809C18.9195 0.58322 19.0794 0.375082 19.2885 0.228165C19.4975 0.0812473 19.7457 0.00253769 20 0.00253769C20.2543 0.00253769 20.5025 0.0812473 20.7115 0.228165C20.9206 0.375082 21.0805 0.58322 21.17 0.824809C22.27 3.80174 24.36 5.07575 26.25 5.07575C28.14 5.07575 30.23 3.80174 31.33 0.822271C31.4195 0.580683 31.5794 0.372545 31.7885 0.225627C31.9975 0.0787096 32.2457 0 32.5 0ZM32.5 12.6894C32.7543 12.6894 33.0025 12.7681 33.2115 12.915C33.4206 13.0619 33.5805 13.2701 33.67 13.5117C34.77 16.4911 36.86 17.7651 38.75 17.7651C39.0815 17.7651 39.3995 17.8988 39.6339 18.1368C39.8683 18.3748 40 18.6975 40 19.0341C40 19.3706 39.8683 19.6934 39.6339 19.9313C39.3995 20.1693 39.0815 20.303 38.75 20.303C36.345 20.303 34.06 19.0417 32.5 16.717C30.94 19.0417 28.655 20.303 26.25 20.303C23.845 20.303 21.56 19.0417 20 16.7195C18.44 19.0417 16.155 20.303 13.75 20.303C11.3475 20.303 9.06 19.0417 7.5 16.7195C5.94 19.0468 3.655 20.3106 1.25 20.3106C0.918479 20.3106 0.600537 20.1769 0.366117 19.939C0.131696 19.701 0 19.3782 0 19.0417C0 18.7051 0.131696 18.3824 0.366117 18.1444C0.600537 17.9064 0.918479 17.7727 1.25 17.7727C3.14 17.7727 5.23 16.4962 6.33 13.5142C6.4195 13.2726 6.57944 13.0645 6.78849 12.9175C6.99753 12.7706 7.24574 12.6919 7.5 12.6919C7.75426 12.6919 8.00247 12.7706 8.21151 12.9175C8.42056 13.0645 8.5805 13.2726 8.67 13.5142C9.77 16.4911 11.86 17.7651 13.75 17.7651C15.64 17.7651 17.73 16.4911 18.83 13.5142C18.9195 13.2726 19.0794 13.0645 19.2885 12.9175C19.4975 12.7706 19.7457 12.6919 20 12.6919C20.2543 12.6919 20.5025 12.7706 20.7115 12.9175C20.9206 13.0645 21.0805 13.2726 21.17 13.5142C22.27 16.4911 24.36 17.7651 26.25 17.7651C28.14 17.7651 30.23 16.4911 31.33 13.5117C31.4195 13.2701 31.5794 13.0619 31.7885 12.915C31.9975 12.7681 32.2457 12.6894 32.5 12.6894ZM33.67 26.201C33.5805 25.9594 33.4206 25.7513 33.2115 25.6044C33.0025 25.4575 32.7543 25.3788 32.5 25.3788C32.2457 25.3788 31.9975 25.4575 31.7885 25.6044C31.5794 25.7513 31.4195 25.9594 31.33 26.201C30.23 29.1805 28.14 30.4545 26.25 30.4545C24.36 30.4545 22.27 29.1805 21.17 26.2036C21.0805 25.962 20.9206 25.7538 20.7115 25.6069C20.5025 25.46 20.2543 25.3813 20 25.3813C19.7457 25.3813 19.4975 25.46 19.2885 25.6069C19.0794 25.7538 18.9195 25.962 18.83 26.2036C17.73 29.1805 15.64 30.4545 13.75 30.4545C11.86 30.4545 9.77 29.1805 8.67 26.2036C8.5805 25.962 8.42056 25.7538 8.21151 25.6069C8.00247 25.46 7.75426 25.3813 7.5 25.3813C7.24574 25.3813 6.99753 25.46 6.78849 25.6069C6.57944 25.7538 6.4195 25.962 6.33 26.2036C5.23 29.1856 3.14 30.4621 1.25 30.4621C0.918479 30.4621 0.600537 30.5958 0.366117 30.8338C0.131696 31.0718 0 31.3945 0 31.7311C0 32.0676 0.131696 32.3904 0.366117 32.6283C0.600537 32.8663 0.918479 33 1.25 33C3.655 33 5.94 31.7361 7.5 29.4089C9.06 31.7311 11.35 32.9924 13.75 32.9924C16.15 32.9924 18.44 31.7311 20 29.4089C21.56 31.7311 23.845 32.9924 26.25 32.9924C28.655 32.9924 30.94 31.7311 32.5 29.4064C34.06 31.7311 36.345 32.9924 38.75 32.9924C39.0815 32.9924 39.3995 32.8587 39.6339 32.6207C39.8683 32.3828 40 32.06 40 31.7234C40 31.3869 39.8683 31.0641 39.6339 30.8262C39.3995 30.5882 39.0815 30.4545 38.75 30.4545C36.86 30.4545 34.77 29.1805 33.67 26.201Z" fill="#4D91D5"/>
</svg>
