<svg width="40" height="40" viewBox="0 0 40 40" fill="none" xmlns="http://www.w3.org/2000/svg">
<path d="M39.8833 1.31616C39.8651 1.0041 39.7329 0.709598 39.5119 0.488562C39.2908 0.267526 38.9963 0.135349 38.6843 0.117125C22.6586 -0.8268 9.84109 3.97786 4.39646 12.9685C0.688746 19.0892 0.833313 26.3195 4.77701 33.4202L0.405991 37.7912C0.280665 37.908 0.180145 38.0488 0.110427 38.2053C0.0407083 38.3617 0.00322045 38.5307 0.00019852 38.7019C-0.00282341 38.8732 0.0286826 39.0433 0.0928379 39.2022C0.156993 39.361 0.252483 39.5053 0.373611 39.6264C0.494739 39.7475 0.639022 39.843 0.797856 39.9072C0.956689 39.9713 1.12682 40.0028 1.29809 39.9998C1.46936 39.9968 1.63828 39.9593 1.79475 39.8896C1.95122 39.8199 2.09204 39.7193 2.20882 39.594L6.57984 35.223C10.2514 37.2618 13.957 38.2866 17.5265 38.2866C20.882 38.2878 24.1722 37.3591 27.0318 35.6036C36.0225 30.159 40.8251 17.3416 39.8833 1.31616ZM25.7115 33.4181C20.5922 36.5178 14.5204 36.4731 8.46346 33.3352L27.7227 14.0762C27.948 13.8344 28.0707 13.5145 28.0649 13.1841C28.059 12.8536 27.9252 12.5383 27.6915 12.3046C27.4577 12.0709 27.1424 11.937 26.812 11.9312C26.4815 11.9254 26.1617 12.048 25.9199 12.2733L6.66062 31.5366C3.52268 25.4798 3.47165 19.4187 6.57771 14.2888C11.3994 6.3313 22.8691 2.00072 37.4044 2.60662C37.9997 17.1312 33.6691 28.6028 25.7115 33.4224V33.4181Z" fill="#4D91D5"/>
</svg>
