<svg width="38" height="40" viewBox="0 0 38 40" fill="none" xmlns="http://www.w3.org/2000/svg">
<path d="M18.7719 0.000866068C19.4278 0.000866068 20.0737 0.0434263 20.6746 0.143568C21.2666 0.219824 21.8506 0.348853 22.4196 0.529114C22.987 0.699355 23.5495 0.918832 24.107 1.18755C24.6502 1.44541 25.2085 1.76086 25.7668 2.10384C26.7106 2.70469 27.6395 3.19038 28.5858 3.57843C30.4483 4.32559 32.4186 4.76934 34.4216 4.89279C35.4347 4.9679 36.4836 5.00629 37.5685 5.00796V15.0221C37.5685 16.9232 37.3257 18.7307 36.84 20.4448C36.3734 22.1377 35.7104 23.7702 34.8647 25.3092C34.0226 26.8461 33.0261 28.2931 31.8905 29.6278C30.7382 30.9935 29.49 32.2753 28.1552 33.4632C26.8016 34.6532 25.3779 35.761 23.8917 36.7804C22.4029 37.8152 20.9058 38.7691 19.4003 39.642L18.7994 40L18.1986 39.642C16.6543 38.7482 15.146 37.7936 13.6772 36.7804C12.183 35.7719 10.7586 34.6637 9.41365 33.4632C8.07976 32.2752 6.83233 30.9934 5.68087 29.6278C4.54914 28.2868 3.54818 26.8407 2.69164 25.3092C1.86111 23.7631 1.19889 22.1323 0.716339 20.4448C0.230807 18.6785 -0.0101104 16.8539 0.000324998 15.0221V5.00796C1.08519 5.00629 2.13501 4.9679 3.14978 4.89279C4.15051 4.82477 5.14471 4.68166 6.124 4.46469C7.08285 4.24938 8.04171 3.96398 8.98555 3.57843C9.9647 3.18264 10.9037 2.69388 11.7895 2.11886C12.8911 1.40285 14.0077 0.874603 15.1092 0.52661C16.2956 0.16332 17.5312 -0.0140304 18.7719 0.000866068ZM35.05 7.46894C33.1549 7.37619 31.2775 7.05937 29.457 6.5251C27.6468 5.98371 25.9223 5.18888 24.3348 4.16426C23.5111 3.62502 22.6174 3.20131 21.6785 2.90498C20.7401 2.62197 19.7645 2.48187 18.7844 2.48939C17.797 2.48337 16.8142 2.62342 15.8678 2.90498C14.9279 3.19247 14.0354 3.61678 13.219 4.16426C11.6282 5.19345 9.89939 5.99169 8.08427 6.53512C6.31009 7.05085 4.44996 7.36629 2.50387 7.48146V15.0347C2.50387 16.692 2.71917 18.2843 3.14978 19.8114C3.58885 21.3277 4.19334 22.791 4.95234 24.1751C5.72074 25.5735 6.62649 26.8918 7.65617 28.1107C8.70014 29.3399 9.81422 30.484 11.0159 31.5706C12.2176 32.6571 13.4769 33.6635 14.7938 34.5898C16.124 35.5178 17.4542 36.3665 18.7844 37.1359C20.1463 36.3445 21.4735 35.495 22.7626 34.5898C24.0897 33.6661 25.3558 32.6575 26.5529 31.5706C27.7546 30.484 28.8712 29.3399 29.9152 28.1107C30.9449 26.8918 31.8506 25.5735 32.619 24.1751C33.3742 22.7925 33.9697 21.3286 34.394 19.8114C34.8382 18.2583 35.059 16.65 35.05 15.0347V7.46894Z" fill="#4D91D5"/>
<path fill-rule="evenodd" clip-rule="evenodd" d="M28.1045 11.79L27.003 10.8436L25.9865 10.9313L15.0711 23.8195L11.3533 18.512L10.3519 18.3417L9.19276 19.1704L9.02002 20.1718L13.7993 26.9965L14.3426 27.2969L15.4867 27.367L16.0725 27.1117L28.1771 12.8039L28.1045 11.79Z" fill="#4D91D5"/>
</svg>
