<svg width="43" height="31" viewBox="0 0 43 31" fill="none" xmlns="http://www.w3.org/2000/svg">
<path d="M27.5 15.5C27.5 17.0913 26.8679 18.6174 25.7426 19.7426C24.6174 20.8679 23.0913 21.5 21.5 21.5C19.9087 21.5 18.3826 20.8679 17.2574 19.7426C16.1321 18.6174 15.5 17.0913 15.5 15.5C15.5 13.9087 16.1321 12.3826 17.2574 11.2574C18.3826 10.1321 19.9087 9.5 21.5 9.5C23.0913 9.5 24.6174 10.1321 25.7426 11.2574C26.8679 12.3826 27.5 13.9087 27.5 15.5Z" stroke="#4D91D5" stroke-width="3" stroke-linecap="round" stroke-linejoin="round"/>
<path d="M1.5 15.5C4.7 7.306 12.172 1.5 21.5 1.5C30.828 1.5 38.3 7.306 41.5 15.5C38.3 23.694 30.828 29.5 21.5 29.5C12.172 29.5 4.7 23.694 1.5 15.5Z" stroke="#4D91D5" stroke-width="3" stroke-linecap="round" stroke-linejoin="round"/>
</svg>
