<svg width="40" height="40" viewBox="0 0 40 40" fill="none" xmlns="http://www.w3.org/2000/svg">
<path d="M0 37.1428H40V40H0V37.1428ZM35.7143 12.8567C36.0932 12.8567 36.4565 12.7062 36.7244 12.4383C36.9923 12.1704 37.1429 11.807 37.1429 11.4281V7.14236C37.1427 6.84876 37.0522 6.56234 36.8834 6.32205C36.7147 6.08177 36.4761 5.8993 36.2 5.79948L20.4857 0.0851078C20.1718 -0.0283693 19.8282 -0.0283693 19.5143 0.0851078L3.8 5.79948C3.5239 5.8993 3.28526 6.08177 3.11655 6.32205C2.94785 6.56234 2.85727 6.84876 2.85714 7.14236V11.4281C2.85714 11.807 3.00765 12.1704 3.27556 12.4383C3.54347 12.7062 3.90683 12.8567 4.28571 12.8567H5.71429V31.4284H2.85714V34.2856H37.1429V31.4284H34.2857V12.8567H35.7143ZM5.71429 8.14237L20 2.94229L34.2857 8.14237V9.99954H5.71429V8.14237ZM22.8571 31.4284H17.1429V12.8567H22.8571V31.4284ZM8.57143 12.8567H14.2857V31.4284H8.57143V12.8567ZM31.4286 31.4284H25.7143V12.8567H31.4286V31.4284Z" fill="#4D91D5"/>
</svg>
