<svg width="43" height="38" viewBox="0 0 43 38" fill="none" xmlns="http://www.w3.org/2000/svg">
<path d="M20.5916 30.5916V36.0458M13.3187 36.0458H27.8644M3.31867 1.5H39.6813C39.6813 1.5 41.5 1.5 41.5 3.31867V28.7729C41.5 28.7729 41.5 30.5916 39.6813 30.5916H3.31867C3.31867 30.5916 1.5 30.5916 1.5 28.7729V3.31867C1.5 3.31867 1.5 1.5 3.31867 1.5Z" stroke="#4D91D5" stroke-width="3" stroke-linecap="round" stroke-linejoin="round"/>
<path d="M18.9309 21.8448L16.9647 22.7746C16.0998 23.1591 15.1188 23.1901 14.2314 22.8609C13.344 22.5318 12.6205 21.8685 12.2156 21.013C11.8107 20.1575 11.7565 19.1775 12.0646 18.2825C12.3726 17.3875 13.0186 16.6485 13.8643 16.2235L15.8305 15.2919L18.9309 21.8448ZM18.9309 21.8448C22.774 20.024 27.0705 19.3831 31.2776 20.0031L32.5807 20.1951L25.7665 5.77905L25.0874 6.90794C22.8993 10.5563 19.6785 13.4739 15.8323 15.2919L18.9309 21.8448ZM18.9309 21.8448C19.3368 22.7029 19.9127 23.4695 20.6239 24.0981C21.335 24.7267 22.1665 25.2043 23.0678 25.5017" stroke="#4D91D5" stroke-width="3" stroke-linecap="round" stroke-linejoin="round"/>
</svg>
