<svg width="39" height="47" viewBox="0 0 39 47" fill="none" xmlns="http://www.w3.org/2000/svg">
<path d="M38.5607 12.1066C39.1464 11.5208 39.1464 10.571 38.5607 9.98524L29.0147 0.439297C28.4289 -0.14649 27.4792 -0.14649 26.8934 0.439297C26.3076 1.02508 26.3076 1.97483 26.8934 2.56062L35.3787 11.0459L26.8934 19.5312C26.3076 20.117 26.3076 21.0667 26.8934 21.6525C27.4792 22.2383 28.4289 22.2383 29.0147 21.6525L38.5607 12.1066ZM1.5 11.0459V12.5459H37.5V11.0459V9.5459H1.5V11.0459Z" fill="#4D91D5"/>
<path d="M0.439339 33.9852C-0.146446 34.571 -0.146446 35.5208 0.439339 36.1066L9.98528 45.6525C10.5711 46.2383 11.5208 46.2383 12.1066 45.6525C12.6924 45.0667 12.6924 44.117 12.1066 43.5312L3.62132 35.0459L12.1066 26.5606C12.6924 25.9748 12.6924 25.0251 12.1066 24.4393C11.5208 23.8535 10.5711 23.8535 9.98528 24.4393L0.439339 33.9852ZM37.5 35.0459L37.5 33.5459L1.5 33.5459L1.5 35.0459L1.5 36.5459L37.5 36.5459L37.5 35.0459Z" fill="#4D91D5"/>
</svg>
