<svg width="40" height="37" viewBox="0 0 40 37" fill="none" xmlns="http://www.w3.org/2000/svg">
<path d="M32.0823 4.42868e-07C32.2801 -0.000166743 32.4751 0.0470035 32.6513 0.137636C32.8274 0.228269 32.9798 0.359779 33.0958 0.521364L33.1858 0.667682L39.865 13.3032L39.9367 13.4747L39.955 13.5386L39.9833 13.6681L40 13.8161L39.9967 13.9843L40 13.875C39.9983 14.0458 39.9643 14.2148 39.9 14.3728L39.85 14.4737L39.7833 14.5847L39.6966 14.7008L20.996 36.5039C20.8358 36.7197 20.6097 36.8763 20.3525 36.9495L20.2559 36.9731L20.0942 36.9966L19.9958 37L19.8291 36.9882L19.6858 36.9613L19.5141 36.9041L19.4708 36.884C19.3164 36.8148 19.1788 36.7127 19.0674 36.5846L0.280035 14.6772L0.176689 14.5309L0.0966789 14.3745L0.0383381 14.2063L0 13.9877V13.7724L0.0250033 13.6059L0.041672 13.5386L0.0966789 13.3789L0.143351 13.283L6.81085 0.669364C6.90378 0.49355 7.03667 0.34245 7.19863 0.228442C7.36059 0.114433 7.54702 0.0407586 7.74264 0.0134548L7.91099 4.42868e-07H32.0823ZM26.5083 15.1364H13.4817L19.9992 32.2236L26.5083 15.1364ZM10.8064 15.1364H3.97716L16.267 29.4621L10.8064 15.1364ZM36.0128 15.1364H29.1903L23.7346 29.4503L36.0128 15.1364ZM13.37 2.52105H8.66108L3.32708 12.6136H10.7013L13.37 2.52105ZM24.038 2.52105H15.957L13.29 12.6136H26.7033L24.038 2.52105ZM31.3323 2.52105H26.6233L29.292 12.6136H36.6646L31.3323 2.52105Z" fill="#4D91D5"/>
</svg>
