<svg width="43" height="43" viewBox="0 0 43 43" fill="none" xmlns="http://www.w3.org/2000/svg">
<path d="M14.2273 19.6818C16.6383 19.6818 18.9506 18.724 20.6555 17.0192C22.3604 15.3143 23.3182 13.002 23.3182 10.5909C23.3182 8.17985 22.3604 5.86754 20.6555 4.16267C18.9506 2.45779 16.6383 1.5 14.2273 1.5C11.8162 1.5 9.50391 2.45779 7.79903 4.16267C6.09415 5.86754 5.13636 8.17985 5.13636 10.5909C5.13636 13.002 6.09415 15.3143 7.79903 17.0192C9.50391 18.724 11.8162 19.6818 14.2273 19.6818ZM14.2273 19.6818C17.8873 19.6818 21.0855 21.0636 23.36 23.36C24.7085 24.7272 25.7174 26.3919 26.3055 28.22M14.2273 19.6818C6.95455 19.6818 1.5 25.1364 1.5 32.4091V41.5H19.6818M21.5 33.9073L29.1182 39.6818L41.5 23.3182" stroke="#4D91D5" stroke-width="3"/>
</svg>
