<svg width="36" height="40" viewBox="0 0 36 40" fill="none" xmlns="http://www.w3.org/2000/svg">
<path d="M4.90276 37C3.40447 33.072 2.52408 27.932 2.52408 22.37C2.52408 16.46 3.51755 11.04 5.18142 7.042C6.00932 5.046 7.03914 3.332 8.25473 2.094C9.47841 0.85 10.9868 0 12.7173 0C14.4518 0 15.9602 0.85 17.1819 2.094C18.3995 3.332 19.4273 5.046 20.2572 7.042C20.4645 7.54067 20.6611 8.06 20.8468 8.6C21.0743 8.27733 21.3032 7.966 21.5334 7.666C22.8237 5.996 24.2271 4.636 25.6931 3.774C27.1631 2.906 28.8088 2.478 30.4504 2.914C32.0941 3.35 33.3037 4.534 34.1396 6.014C34.9716 7.488 35.5026 9.36 35.7752 11.446C36.3224 15.626 35.8762 20.972 34.3739 26.53C33.3097 30.464 31.8377 34.05 30.1476 37H33.8226C34.2243 37 34.6095 37.158 34.8935 37.4393C35.1775 37.7206 35.3371 38.1022 35.3371 38.5C35.3371 38.8978 35.1775 39.2794 34.8935 39.5607C34.6095 39.842 34.2243 40 33.8226 40H1.51445C1.11279 40 0.727584 39.842 0.443571 39.5607C0.159557 39.2794 0 38.8978 0 38.5C0 38.1022 0.159557 37.7206 0.443571 37.4393C0.727584 37.158 1.11279 37 1.51445 37H4.90276ZM7.98214 8.184C6.50202 11.738 5.55297 16.754 5.55297 22.37C5.55297 28.238 6.58885 33.436 8.17195 37H13.8016C13.1474 32.744 13.5714 27.19 15.1323 21.424C16.0612 17.986 17.301 14.82 18.7226 12.112C18.3986 10.7736 17.9754 9.46073 17.4565 8.184C16.7154 6.404 15.8714 5.06 15.0132 4.186C14.1591 3.318 13.3837 3 12.7193 3C12.053 3 11.2796 3.318 10.4254 4.186C9.56524 5.06 8.72118 6.402 7.98214 8.184ZM26.6078 37C27.8375 35.0865 28.8775 33.0597 29.7134 30.948L24.7945 26.496C24.6156 26.3335 24.3998 26.2159 24.1654 26.1533C23.931 26.0906 23.6848 26.0847 23.4477 26.136L16.9396 27.556C16.4105 31.176 16.4146 34.444 16.8709 37H26.6078ZM20.1361 16.182L24.9823 15.126C25.6932 14.971 26.4314 14.9875 27.1345 15.174C27.8377 15.3606 28.4853 15.7118 29.0228 16.198L32.6858 19.514C33.0432 16.644 33.0593 14.022 32.7726 11.834C32.5303 9.976 32.078 8.51 31.4964 7.48C30.9169 6.456 30.2788 5.974 29.667 5.812C29.0572 5.652 28.2595 5.752 27.2418 6.352C26.2181 6.954 25.0873 8.002 23.9403 9.488C22.5874 11.242 21.2749 13.522 20.1361 16.182ZM18.8639 19.532C18.334 21.1159 17.8878 22.7261 17.5272 24.356L22.7954 23.208C23.5067 23.0527 24.2452 23.069 24.9487 23.2555C25.6523 23.4421 26.3002 23.7935 26.838 24.28L30.82 27.884C31.3307 26.2938 31.7573 24.6782 32.0982 23.044L26.9793 18.412C26.8 18.2502 26.5841 18.1333 26.3497 18.0714C26.1153 18.0094 25.8694 18.0042 25.6325 18.056L18.8639 19.532Z" fill="#4D91D5"/>
</svg>
