<svg width="56" height="35" viewBox="0 0 56 35" fill="none" xmlns="http://www.w3.org/2000/svg">
<path d="M17.1466 33.2502H38.3487M31.723 33.2502V19.9158M23.7722 22.5827V33.2502M38.0943 2.94372L41.8656 2.09565M41.8656 2.09565L45.6369 1.25024M41.8656 2.09565L43.6068 9.43492M5.40321 10.2883L9.1772 9.44026M9.1772 9.44026L12.9485 8.59219M9.1772 9.44026L10.9184 16.7769M2.745 18.6144L51.7803 7.60011C52.2738 7.48292 52.7932 7.56537 53.2269 7.82971C53.6606 8.09406 53.9739 8.51917 54.0992 9.01356C54.8228 12.0538 52.8722 15.0834 49.7475 15.7875L8.2602 25.1056C5.13289 25.807 2.01617 23.9108 1.2953 20.8705C1.24094 20.6265 1.23544 20.374 1.27915 20.1277C1.32285 19.8815 1.41487 19.6465 1.54983 19.4364C1.68479 19.2264 1.85999 19.0455 2.0652 18.9044C2.2704 18.7632 2.5015 18.6646 2.745 18.6144Z" stroke="#4D91D5" stroke-width="2.5" stroke-linecap="round" stroke-linejoin="round"/>
</svg>
