<svg width="40" height="40" viewBox="0 0 40 40" fill="none" xmlns="http://www.w3.org/2000/svg">
<path d="M19.4591 30.4116C19.5963 30.2643 19.7618 30.1462 19.9456 30.0643C20.1294 29.9824 20.3279 29.9384 20.5291 29.9348C20.7303 29.9313 20.9302 29.9683 21.1168 30.0437C21.3034 30.119 21.4729 30.2312 21.6152 30.3735C21.7575 30.5158 21.8697 30.6853 21.9451 30.8719C22.0204 31.0585 22.0574 31.2584 22.0539 31.4596C22.0503 31.6608 22.0063 31.8593 21.9244 32.0431C21.8425 32.2269 21.7244 32.3924 21.5772 32.5296L14.5837 39.523C14.4465 39.6703 14.2811 39.7884 14.0973 39.8703C13.9134 39.9522 13.715 39.9962 13.5138 39.9998C13.3126 40.0033 13.1127 39.9663 12.9261 39.8909C12.7395 39.8156 12.57 39.7034 12.4277 39.5611C12.2854 39.4188 12.1732 39.2493 12.0978 39.0627C12.0224 38.8761 11.9854 38.6762 11.989 38.475C11.9925 38.2738 12.0366 38.0753 12.1185 37.8915C12.2004 37.7077 12.3185 37.5422 12.4657 37.405L19.4591 30.4116ZM4.47322 33.4087C4.61041 33.2615 4.77586 33.1434 4.95968 33.0615C5.14351 32.9796 5.34195 32.9356 5.54317 32.932C5.74438 32.9285 5.94425 32.9655 6.13086 33.0408C6.31746 33.1162 6.48696 33.2284 6.62927 33.3707C6.77157 33.513 6.88376 33.6825 6.95913 33.8691C7.0345 34.0557 7.07151 34.2556 7.06796 34.4568C7.06441 34.658 7.02037 34.8565 6.93846 35.0403C6.85656 35.2241 6.73846 35.3896 6.59123 35.5268L3.59404 38.524C3.45685 38.6712 3.2914 38.7893 3.10757 38.8712C2.92375 38.9531 2.72531 38.9972 2.52409 39.0007C2.32287 39.0043 2.123 38.9672 1.9364 38.8919C1.7498 38.8165 1.58029 38.7043 1.43799 38.562C1.29569 38.4197 1.1835 38.2502 1.10813 38.0636C1.03276 37.877 0.995745 37.6771 0.999295 37.4759C1.00285 37.2747 1.04689 37.0762 1.12879 36.8924C1.2107 36.7086 1.3288 36.5431 1.47603 36.4059L4.47322 33.4087ZM32.1113 20.7066C32.3151 19.7395 33.6978 19.7395 33.9016 20.7066L34.2133 22.2592C34.567 24.0295 35.9517 25.4162 37.722 25.7719L39.2745 26.0796C40.2137 26.2774 40.2396 27.5822 39.3605 27.848L37.722 28.1756C36.856 28.3493 36.0608 28.7754 35.4364 29.4001C34.8121 30.0248 34.3865 30.8203 34.2133 31.6864L33.9016 33.2369L33.8596 33.3588C33.5859 34.1441 32.5389 34.1521 32.1972 33.4887L32.1412 33.3288L31.8055 31.6804C31.6309 30.8157 31.2047 30.022 30.5805 29.3988C29.9562 28.7756 29.1618 28.3508 28.2968 28.1776L26.7383 27.8659C25.8012 27.6681 25.7712 26.3673 26.6504 26.0996L28.2889 25.7719C29.1558 25.5988 29.9521 25.1728 30.5773 24.5476C31.2024 23.9225 31.6284 23.1262 31.8016 22.2592L32.1113 20.7066ZM15.4629 22.419C15.6001 22.2718 15.7655 22.1537 15.9494 22.0718C16.1332 21.9899 16.3316 21.9458 16.5328 21.9423C16.7341 21.9387 16.9339 21.9758 17.1205 22.0511C17.3071 22.1265 17.4766 22.2387 17.6189 22.381C17.7613 22.5233 17.8734 22.6928 17.9488 22.8794C18.0242 23.066 18.0612 23.2659 18.0576 23.4671C18.0541 23.6683 18.01 23.8668 17.9281 24.0506C17.8462 24.2344 17.7281 24.3999 17.5809 24.537L10.5875 31.5305C10.4503 31.6777 10.2848 31.7958 10.101 31.8777C9.91718 31.9597 9.71874 32.0037 9.51752 32.0072C9.31631 32.0108 9.11644 31.9738 8.92984 31.8984C8.74323 31.823 8.57373 31.7109 8.43142 31.5685C8.28912 31.4262 8.17693 31.2567 8.10156 31.0701C8.02619 30.8835 7.98918 30.6837 7.99273 30.4824C7.99628 30.2812 8.04032 30.0828 8.12223 29.899C8.20413 29.7151 8.32223 29.5497 8.46946 29.4125L15.4629 22.419ZM8.46946 17.4237C8.60666 17.2765 8.7721 17.1584 8.95593 17.0765C9.13976 16.9946 9.3382 16.9505 9.53941 16.947C9.74063 16.9434 9.9405 16.9804 10.1271 17.0558C10.3137 17.1312 10.4832 17.2434 10.6255 17.3857C10.7678 17.528 10.88 17.6975 10.9554 17.8841C11.0307 18.0707 11.0678 18.2705 11.0642 18.4718C11.0607 18.673 11.0166 18.8714 10.9347 19.0553C10.8528 19.2391 10.7347 19.4045 10.5875 19.5417L2.59498 27.5342C2.45778 27.6815 2.29234 27.7996 2.10851 27.8815C1.92469 27.9634 1.72625 28.0074 1.52503 28.011C1.32381 28.0145 1.12394 27.9775 0.937342 27.9021C0.75074 27.8268 0.581232 27.7146 0.438928 27.5723C0.296624 27.43 0.18444 27.2605 0.109069 27.0739C0.0336975 26.8873 -0.00331701 26.6874 0.000233223 26.4862C0.00378346 26.285 0.0478261 26.0865 0.129733 25.9027C0.21164 25.7189 0.329734 25.5534 0.476969 25.4162L8.46946 17.4237ZM21.6091 1.13893C21.9308 -0.379645 24.1008 -0.379645 24.4225 1.13893L24.908 3.57665C25.18 4.93933 25.8495 6.19091 26.832 7.17347C27.8146 8.15603 29.0662 8.82553 30.4288 9.09749L32.8646 9.58304C34.3392 9.89275 34.3831 11.9428 33.0004 12.3604L30.4288 12.876C29.0664 13.1478 27.815 13.817 26.8325 14.7992C25.85 15.7813 25.1803 17.0325 24.908 18.3948L24.4225 20.8305L24.3565 21.0203C23.9269 22.2532 22.2785 22.2692 21.743 21.2261L21.6531 20.9744L21.1296 18.3808C20.8548 17.0222 20.1848 15.7751 19.2037 14.7961C18.2225 13.817 16.9739 13.1497 15.6148 12.878L13.1671 12.3904C11.6944 12.0807 11.6485 10.0326 13.0292 9.61301L15.6028 9.09749C16.9651 8.82518 18.2162 8.15552 19.1984 7.17299C20.1806 6.19046 20.8498 4.93906 21.1216 3.57665L21.6091 1.13893Z" fill="#4D91D5"/>
</svg>
