<svg width="40" height="46" viewBox="0 0 40 46" fill="none" xmlns="http://www.w3.org/2000/svg">
<path d="M10.9693 0C10.7221 0.561507 10.4772 1.12404 10.2347 1.6876C10.1931 1.7843 10.1642 1.85239 10.1234 1.94762C14.7239 5.2897 21.2489 6.84748 28.7418 5.03173C28.6557 4.47629 28.4886 3.93646 28.2459 3.42947C22.4025 5.63662 15.3641 4.28213 10.9693 0ZM9.41358 3.6067C9.29283 3.89044 9.16748 4.18573 9.16356 4.19494C8.85326 5.01586 8.94108 5.5941 9.24696 6.17498C9.55373 6.75734 10.1417 7.32108 10.8533 7.79273C12.2769 8.73602 14.2162 9.29799 14.6279 9.37451C15.7876 9.59005 16.9362 9.14476 18.2766 8.57926C19.3271 8.13603 20.4906 7.62088 21.7997 7.5476C17.0206 7.4119 12.7791 5.95141 9.41358 3.6067ZM28.7295 6.84571C26.6125 7.32608 24.5583 7.55348 22.5898 7.55779C22.698 7.56732 22.8072 7.58045 22.9173 7.59717C24.362 7.71621 25.1855 9.81108 26.0056 10.0884C26.169 10.1331 26.371 10.1482 26.8541 9.86144C27.8091 9.29486 28.5025 8.16777 28.7295 6.84571ZM8.08399 7.62607C7.14957 11.7669 6.1295 16.2168 4.79354 20.4771C4.5295 23.6959 4.85764 25.5627 5.55938 27.3268C6.26504 29.1006 7.41449 30.8251 8.7725 33.5282C9.58362 33.7203 10.3223 33.8136 10.9052 33.7569C12.6279 33.5894 15.323 32.0025 17.4487 30.404C18.2738 29.7825 19.0772 29.1328 19.8574 28.456C16.6836 28.4109 13.3251 28.3627 10.3909 28.3206L10.1407 28.0819C8.87913 26.8788 7.92678 25.08 8.04528 23.2914L8.09977 22.4677C13.1293 22.6003 17.5366 22.8142 22.5167 23.0186C22.6411 22.6401 22.7657 22.261 22.8913 21.8708C19.7082 21.3001 13.1694 20.1105 11.0571 19.5961C10.2413 19.3104 9.98546 18.2252 9.72809 17.518C9.39652 16.599 9.05849 15.439 8.94304 14.323L8.81935 13.1294L24.5574 16.3234C24.9776 14.7968 25.3601 13.2746 25.6676 11.82C23.9453 11.5836 23.8151 9.68714 22.6524 9.34061C21.4244 9.04444 20.3109 9.63512 18.9627 10.2041C17.6146 10.7729 16.0785 11.4377 14.3053 11.1082C13.5219 10.9626 11.6124 10.4116 9.87873 9.26272C9.21158 8.82067 8.57403 8.28759 8.08389 7.62607H8.08399ZM10.9208 15.3552C11.1574 16.274 11.4296 17.1454 11.812 17.9529C12.1841 18.0389 12.681 18.1438 13.2372 18.2578L12.7462 15.7258L10.9208 15.3552ZM14.6168 16.1054L15.1058 18.6288C16.0131 18.8045 16.9209 18.9771 17.8293 19.1466L17.4725 16.685L14.6168 16.1054ZM19.3091 17.0577L19.661 19.4851C21.7469 19.8688 23.6168 20.2057 24.164 20.3034L24.6835 18.1484L19.3091 17.0577ZM9.90489 24.2697C10.1014 25.0555 10.5677 25.9329 11.1364 26.5675L12.5433 26.5878L11.7321 24.343C11.1189 24.3181 10.4643 24.292 9.90489 24.2697ZM13.6358 24.4205L14.4288 26.6148L17.0048 26.6517L16.3492 24.5309C15.3667 24.4908 14.5448 24.4575 13.6358 24.4205ZM18.2194 24.6077L18.8595 26.6781C20.0201 26.6948 21.1435 26.7108 22.2757 26.7265C22.5301 26.063 22.7762 25.3388 22.9578 24.8017C22.2784 24.7738 20.2182 24.6895 18.2194 24.6077V24.6077ZM3.14464 25.1616C2.47014 26.8619 1.72567 28.4954 0.892498 30.0232C1.55759 30.4285 2.64754 31.0715 4.2346 31.8396C4.9381 32.18 5.65549 32.4911 6.38491 32.7718C5.40747 30.9697 4.55009 29.5622 3.91999 27.9785C3.5748 27.1107 3.31106 26.1961 3.14464 25.1616ZM21.7523 29.1335C21.0642 29.7546 19.8924 30.7729 18.5092 31.8131C16.288 33.4836 13.5798 35.2684 11.076 35.512C10.3254 35.585 9.5304 35.5199 8.71928 35.3608C8.53248 37.0983 8.08007 38.8487 7.39979 40.439C17.9202 41.102 27.2799 41.3987 38.4373 41.1434C38.4259 40.3532 38.3735 39.6157 38.2893 39.3296C37.7748 37.5788 36.1958 36.1413 34.0361 34.8652L31.7526 39.0836L24.1684 40.2293L29.4619 32.6335C28.9942 32.4333 28.5259 32.2349 28.0568 32.0382L23.9175 37.6393L15.7946 37.9838L17.0866 36.4498C17.0866 36.4498 18.8322 34.3774 20.6129 32.2783C21.3442 31.4159 22.0776 30.5553 22.8132 29.6966C22.456 29.5157 22.1023 29.3279 21.7523 29.1335ZM25.2006 29.632C24.404 30.5427 23.5717 31.5219 22.8497 32.3706L25.5632 32.4444L26.9365 30.5862L25.2006 29.632ZM1.39862 32.353C0.890734 35.0549 0.756167 37.4927 0.914452 39.9988C2.44803 40.1099 3.98194 40.2162 5.51616 40.3179C6.29915 38.6819 6.82115 36.7564 6.99109 34.8981C5.77588 34.4981 4.56969 33.9611 3.46582 33.4268C2.70556 33.0589 2.00901 32.69 1.39862 32.353ZM31.5219 32.7321L30.2455 34.5941L31.7894 35.3103L32.794 33.5223L31.5219 32.7321ZM21.3872 34.0945C20.8353 34.7464 20.2839 35.3988 19.733 36.0516L22.9998 35.913L24.2852 34.1736L21.3872 34.0945ZM29.2216 36.0634L27.9608 37.8729L30.6196 37.4712L30.9481 36.8643L29.2216 36.0634ZM0.335318 41.7211C0.0136534 42.9522 -0.147081 45.0324 0.177916 46H11.0153C11.2807 43.2946 31.6005 44.3803 31.7456 46H39.9002C40.0445 45.3217 40.0668 43.4245 39.7313 42.8741C25.5452 43.2458 14.3041 42.7374 0.335318 41.7211Z" fill="#4D91D5"/>
</svg>
