<svg width="113" height="80" viewBox="0 0 113 80" fill="none" xmlns="http://www.w3.org/2000/svg">
<path d="M71.8133 21.8492C71.5733 17.5554 67.2731 17.6333 58.3548 21.8492C49.4365 26.0651 36.0622 36.845 29.9005 48.9285L28.8497 53.4687L29.3362 53.8708L31.522 52.0093L33.6299 49.6614C33.6299 49.6614 38.1313 39.4264 48.0744 31.5329C58.0175 23.6394 66.3845 20.9801 68.3303 22.3357C70.2761 23.6912 68.8946 28.8023 67.1109 31.014L68.5703 30.6897C68.5703 30.6897 72.0533 26.1495 71.8133 21.8557V21.8492Z" fill="white"/>
<path d="M95.2409 23.3929C93.1329 23.555 83.2676 23.6977 62.5123 32.3696C41.7569 41.0479 29.4075 52.5801 29.4075 52.5801L28.4346 54.6038L28.8367 56.141C28.8367 56.141 29.8874 56.7052 30.5361 55.7388C37.9107 49.4992 57.7321 37.9216 69.2448 32.895C80.7575 27.8683 86.8804 27.6023 91.0963 27.6023C88.0997 29.9503 82.9109 38.5443 80.8808 44.1418C78.8571 49.7327 79.7457 48.922 79.7457 48.922C79.7457 48.922 82.178 42.9224 86.2318 36.9228C90.2855 30.9232 92.3935 29.8725 95.2279 27.4402C98.0623 25.0079 97.3359 23.2243 95.2279 23.3864L95.2409 23.3929Z" fill="#8DB9E4"/>
<path d="M87.0101 6.04271C82.0223 -1.09195 66.8644 -3.4399 52.1865 7.5799C37.5086 18.5997 26.4564 42.5786 26.5666 56.6339L30.2961 55.7453C30.2961 55.7453 29.0832 43.6683 38.728 28.2574C48.3792 12.8531 62.4864 3.44829 75.4585 4.66118C88.4305 5.87407 87.6976 18.5219 86.2383 24.2815C88.3462 22.9064 91.9914 13.1774 87.0101 6.04271Z" fill="#FBDB40"/>
<path d="M103.031 49.2787C98.3801 49.4409 74.9331 52.0872 70.795 52.3726C66.6569 52.6579 65.1197 51.5618 64.7565 50.2257C64.3932 48.8896 65.8072 47.508 67.0266 46.9827C68.2459 46.4573 68.8102 47.8323 69.2967 48.9285C72.7408 45.4455 70.0231 42.6046 63.2971 43.4153C56.5711 44.2261 44.0854 49.1685 34.3953 52.9433C24.7051 56.7182 22.3961 56.7117 19.8016 56.7506C17.2072 56.7896 14.6971 54.5194 11.2919 53.9552C7.88677 53.3909 3.87191 54.4416 1.71205 55.875C-0.4478 57.3084 -0.149442 57.8727 0.3889 57.8468C0.927243 57.8208 4.49457 55.9529 8.14622 55.5767C11.7914 55.2005 14.1718 56.9517 16.364 58.0089C18.5563 59.0662 22.2793 58.4111 26.1709 57.769C26.4952 80.4701 45.4669 84.3618 59.1655 75.8456C72.864 67.3294 78.2993 53.5984 78.2993 53.5984C78.2993 53.5984 93.0551 52.0483 99.8654 51.484C106.676 50.9197 108.661 52.7812 110.12 54.3638C111.579 55.9464 112.085 56.0566 112.189 55.661C113.11 52.0937 107.681 49.123 103.031 49.2852V49.2787Z" fill="white"/>
</svg>
